<?xml version="1.0" encoding="utf-8"?>
<!-- Generator: Adobe Illustrator 22.0.0, SVG Export Plug-In . SVG Version: 6.00 Build 0)  -->
<svg version="1.1" id="Layer_1" xmlns="http://www.w3.org/2000/svg" xmlns:xlink="http://www.w3.org/1999/xlink" x="0px" y="0px"
	 viewBox="0 0 440 100" style="enable-background:new 0 0 440 100;" xml:space="preserve">
<style type="text/css">
	.st0{fill:#838BC5;}
	.st1{fill:#1A1A1A;stroke:#000000;stroke-width:1.1252;stroke-miterlimit:10;}
	.st2{font-family:'ArialMT';}
	.st3{font-size:27.0399px;}
	.st4{fill:none;stroke:#000000;stroke-width:1.3397;stroke-miterlimit:10;}
	.st5{fill:none;stroke:#CCCCCC;stroke-width:1.3397;stroke-miterlimit:10;}
	.st6{fill:#CCCCCC;}
	.st7{fill:none;stroke:#000000;stroke-width:1.0048;stroke-miterlimit:10;}
</style>
<g>
	<rect x="138.8" y="61.1" class="st0" width="51.4" height="21"/>
	<path class="st1" d="M338.6,84.6h-118c-6,0-10.9-5.7-10.9-12.9V56.2c0-7.1,4.8-12.9,10.9-12.9h118.1c6,0,10.9,5.7,10.9,12.9v15.6
		C349.4,78.8,344.6,84.6,338.6,84.6z"/>
	<text transform="matrix(0.8862 0 0 1 100.7185 73.2139)" class="st2 st3">PROJECT</text>
	<text transform="matrix(0.8862 0 0 1 100.7185 73.2139)" class="st4 st2 st3">PROJECT</text>
	<text transform="matrix(0.8862 0 0 1 189.3376 73.2139)" class="st2 st3">     </text>
	<text transform="matrix(0.8862 0 0 1 189.3376 73.2139)" class="st5 st2 st3">     </text>
	<text transform="matrix(0.8862 0 0 1 214.7278 73.2139)" class="st6 st2 st3">PORTFOLIO</text>
	<text transform="matrix(0.8862 0 0 1 214.7278 73.2139)" class="st5 st2 st3">PORTFOLIO</text>
	<line class="st7" x1="95.2" y1="64" x2="79.5" y2="64"/>
	<line class="st7" x1="355.6" y1="64.6" x2="371.3" y2="64.6"/>
</g>
</svg>
