<?xml version="1.0" encoding="utf-8"?>
<!-- Generator: Adobe Illustrator 22.0.0, SVG Export Plug-In . SVG Version: 6.00 Build 0)  -->
<svg version="1.1" id="Layer_1" xmlns="http://www.w3.org/2000/svg" xmlns:xlink="http://www.w3.org/1999/xlink" x="0px" y="0px"
	 viewBox="0 0 300 300" style="enable-background:new 0 0 300 300;" xml:space="preserve">
<style type="text/css">
	.st0{fill:#29ABE2;}
	.st1{fill:none;stroke:#000000;stroke-width:2.9021;stroke-miterlimit:10;}
	.st2{stroke:#000000;stroke-width:1.3312;stroke-miterlimit:10;}
</style>
<rect x="71.5" y="144.9" class="st0" width="206.5" height="43.6"/>
<line class="st1" x1="0" y1="143.9" x2="34.5" y2="143.9"/>
<line class="st1" x1="250.5" y1="143.9" x2="285" y2="143.9"/>
<g>
	<g>
		<path class="st2" d="M61.7,169.2c0,0-0.9-0.3-2.7-0.8c-1.8-0.5-3.5-1.3-5-2.4c-1.6-1.1-3-2.4-4.4-4l3.6-6.3
			c1.6,1.9,3.3,3.4,5.2,4.4c1.9,1,4,1.5,6.2,1.5c3,0,5.3-0.8,7-2.4c1.7-1.6,2.5-3.8,2.5-6.7v0c0-2.1-0.4-3.7-1.1-4.9
			c-0.8-1.2-1.7-2.1-2.9-2.7c-1.2-0.6-2.7-1.1-4.6-1.6c-0.1,0-0.1,0-0.2,0c-0.1,0-0.1,0-0.2,0l-0.4-0.1c-2.8-0.7-5-1.4-6.8-2.3
			c-1.7-0.9-3.2-2.4-4.5-4.7c-1.2-2.3-1.9-5.5-1.9-9.6v0c0-3.6,0.6-6.8,1.7-9.3c1.2-2.6,2.8-4.5,5-5.9c2.2-1.3,4.9-2,8-2
			c1.5,0,2.9,0.2,4.4,0.7c1.4,0.5,2.9,1.1,4.3,2c1.4,0.9,2.8,2,4.1,3.4l-3.3,6.6c-1.6-1.6-3.2-2.9-4.7-3.7c-1.6-0.8-3.1-1.2-4.7-1.2
			c-2.8,0-5,0.8-6.6,2.4c-1.6,1.6-2.4,3.9-2.4,6.8v0c0,2,0.4,3.6,1.2,4.8c0.8,1.2,1.8,2,3,2.6c1.2,0.6,2.9,1.1,5,1.7
			c0.1,0,0.1,0,0.2,0.1c0.1,0,0.1,0,0.2,0.1c0.1,0,0.2,0.1,0.3,0.1c0.1,0,0.2,0.1,0.3,0.1c2.5,0.7,4.6,1.6,6.3,2.6
			c1.7,1,3.1,2.6,4.2,4.8c1.1,2.2,1.7,5.3,1.7,9.1v0.1c0,3.6-0.6,6.7-1.8,9.2c-1.2,2.5-2.9,4.5-5.2,5.8c-2.3,1.3-5,2-8.2,2
			C62.7,169.2,61.7,169.2,61.7,169.2z"/>
		<path class="st2" d="M88.2,109.7H94v58.9h-5.8V109.7z M92.8,142.8l18.3-33h7.2l-26.4,45.4L92.8,142.8z M99.7,137.2l4.6-6
			l15.7,37.5h-7.1L99.7,137.2z"/>
		<path class="st2" d="M131.6,168.6h-5.8v-58.9h5.8V168.6z"/>
		<path class="st2" d="M141.8,109.7h5.8v58.9h-5.8V109.7z M144.8,160.8h23.8v7.9h-23.8V160.8z"/>
		<path class="st2" d="M175.4,109.7h5.8v58.9h-5.8V109.7z M178.3,160.8h23.8v7.9h-23.8V160.8z"/>
		<path class="st2" d="M218.4,169.2c0,0-0.9-0.3-2.7-0.8c-1.8-0.5-3.5-1.3-5-2.4c-1.6-1.1-3-2.4-4.4-4l3.6-6.3
			c1.6,1.9,3.3,3.4,5.2,4.4c1.9,1,4,1.5,6.2,1.5c3,0,5.3-0.8,7-2.4c1.7-1.6,2.5-3.8,2.5-6.7v0c0-2.1-0.4-3.7-1.1-4.9
			c-0.8-1.2-1.7-2.1-2.9-2.7c-1.2-0.6-2.7-1.1-4.6-1.6c-0.1,0-0.1,0-0.2,0c-0.1,0-0.1,0-0.2,0l-0.4-0.1c-2.8-0.7-5-1.4-6.8-2.3
			c-1.7-0.9-3.2-2.4-4.5-4.7c-1.2-2.3-1.9-5.5-1.9-9.6v0c0-3.6,0.6-6.8,1.7-9.3c1.2-2.6,2.8-4.5,5-5.9c2.2-1.3,4.9-2,8-2
			c1.5,0,2.9,0.2,4.4,0.7c1.4,0.5,2.9,1.1,4.3,2c1.4,0.9,2.8,2,4.1,3.4l-3.3,6.6c-1.6-1.6-3.2-2.9-4.7-3.7c-1.6-0.8-3.1-1.2-4.7-1.2
			c-2.8,0-5,0.8-6.6,2.4c-1.6,1.6-2.4,3.9-2.4,6.8v0c0,2,0.4,3.6,1.2,4.8c0.8,1.2,1.8,2,3,2.6c1.2,0.6,2.9,1.1,5,1.7
			c0.1,0,0.1,0,0.2,0.1c0.1,0,0.1,0,0.2,0.1c0.1,0,0.2,0.1,0.3,0.1c0.1,0,0.2,0.1,0.3,0.1c2.5,0.7,4.6,1.6,6.3,2.6s3.1,2.6,4.2,4.8
			c1.1,2.2,1.7,5.3,1.7,9.1v0.1c0,3.6-0.6,6.7-1.8,9.2c-1.2,2.5-2.9,4.5-5.2,5.8c-2.3,1.3-5,2-8.2,2
			C219.4,169.2,218.4,169.2,218.4,169.2z"/>
	</g>
</g>
</svg>
